<?xml version="1.0" encoding="UTF-8"?>
<svg id="Camada_1" data-name="Camada 1" xmlns="http://www.w3.org/2000/svg" viewBox="0 0 800 800">
  <defs>
    <style>.cls-1 { fill: #4711cb; }</style>
  </defs>
  <g>
    <path class="cls-1" d="M220.64,493.39v1.52l-25.15,27.77,25.15,27.77v1.52h-12.93l-21.92-23.84h-13.13v23.84h-10.91v-77.77h10.91v43.03h13.13l21.92-23.84h12.93Z"/>
    <path class="cls-1" d="M286.48,493.39v45.45c0,7.27-5.86,13.13-13.13,13.13h-33.33c-7.27,0-13.13-5.86-13.13-13.13v-45.45h10.91v45.45c0,1.21,1.01,2.22,2.22,2.22h33.33c1.21,0,2.22-1.01,2.22-2.22v-45.45h10.91Z"/>
    <path class="cls-1" d="M356.78,506.52v45.45h-10.91v-45.45c0-1.21-1.01-2.22-2.22-2.22h-33.33c-1.21,0-2.22,1.01-2.22,2.22v45.45h-10.91v-58.58h46.46c7.27,0,13.13,5.86,13.13,13.13Z"/>
    <path class="cls-1" d="M367.28,474.2h10.91v64.64c0,1.21,1.01,2.22,2.22,2.22h10.91v10.91h-10.91c-7.27,0-13.13-5.86-13.13-13.13v-64.64Z"/>
    <path class="cls-1" d="M457.37,506.52v45.45h-46.46c-7.27,0-13.13-5.86-13.13-13.13v-21.61h48.68v-10.71c0-1.21-1.01-2.22-2.22-2.22h-46.46v-10.91h46.46c7.27,0,13.13,5.86,13.13,13.13ZM446.46,528.13h-37.77v10.71c0,1.21,1.01,2.22,2.22,2.22h35.55v-12.93Z"/>
    <path class="cls-1" d="M478.88,504.3v34.54c0,1.21,1.01,2.22,2.22,2.22h21.82v10.91h-21.82c-7.27,0-13.13-5.86-13.13-13.13v-64.64h10.91v19.19h24.04v10.91h-24.04Z"/>
    <path class="cls-1" d="M568.76,506.52v21.61h-48.68v10.71c0,1.21,1.01,2.22,2.22,2.22h46.46v10.91h-46.46c-7.27,0-13.13-5.86-13.13-13.13v-32.32c0-7.27,5.86-13.13,13.13-13.13h33.33c7.27,0,13.13,5.86,13.13,13.13ZM557.85,517.22v-10.71c0-1.21-1.01-2.22-2.22-2.22h-33.33c-1.21,0-2.22,1.01-2.22,2.22v10.71h37.77Z"/>
    <path class="cls-1" d="M638.25,493.39v1.52l-25.15,27.77,25.15,27.77v1.52h-12.93l-21.92-23.84h-13.13v23.84h-10.91v-77.77h10.91v43.03h13.13l21.92-23.84h12.93Z"/>
  </g>
  <g>
    <g>
      <path class="cls-1" d="M246.92,248.03h23.99v159.92h-23.99v-159.92Z"/>
      <path class="cls-1" d="M382.18,364.98v27.76l-91.29-52.86v-23.99l91.29-52.64v27.76l-64.19,36.87,64.19,37.09Z"/>
    </g>
    <g>
      <path class="cls-1" d="M412.83,364.98l64.19-37.09-64.19-36.87v-27.76l91.29,52.64v23.99l-91.29,52.86v-27.76Z"/>
      <path class="cls-1" d="M524.54,248.03h23.99v159.92h-23.99v-159.92Z"/>
    </g>
  </g>
</svg>