<?xml version="1.0" encoding="UTF-8"?>
<svg id="Camada_2" data-name="Camada 2" xmlns="http://www.w3.org/2000/svg" viewBox="0 0 571.06 317.55">
  <g id="Camada_1-2" data-name="Camada 1">
    <g>
      <path d="M404.67,153.3c-.87-1.45-2.1-2.62-3.7-3.51-1.6-.89-3.75-1.33-6.44-1.33-2.85,0-5.38.62-7.59,1.87-2.21,1.25-3.98,3.16-5.3,5.76-.41-1.07-.9-2.06-1.49-2.97-.58-.92-1.32-1.72-2.21-2.4-.89-.69-1.97-1.23-3.24-1.64-1.27-.41-2.82-.61-4.65-.61-2.59,0-4.98.6-7.17,1.79-2.19,1.2-3.86,2.94-5.03,5.22h-.15v-5.95h-4.58v39.5h4.58v-21.28c0-.81.04-1.7.11-2.67.08-.97.22-1.93.42-2.9.2-.97.47-1.89.8-2.78.33-.89.75-1.66,1.26-2.33,1.17-1.53,2.53-2.66,4.08-3.39,1.55-.74,3.16-1.11,4.84-1.11,3.25,0,5.48.81,6.67,2.44,1.19,1.63,1.79,3.86,1.79,6.71v27.3h4.58v-21.28c0-.81.04-1.7.11-2.67.08-.97.22-1.93.42-2.9.2-.97.47-1.89.8-2.78.33-.89.75-1.66,1.26-2.33,1.17-1.53,2.53-2.66,4.08-3.39,1.55-.74,3.16-1.11,4.84-1.11,3.25,0,5.48.81,6.67,2.44,1.19,1.63,1.79,3.86,1.79,6.71v27.3h4.58v-24.94c0-1.98-.14-3.91-.42-5.8-.28-1.88-.85-3.55-1.72-4.99Z"/>
      <path d="M446.16,154.06c-3.1-3.74-7.37-5.61-12.81-5.61-2.85,0-5.39.55-7.63,1.64-2.24,1.09-4.13,2.59-5.68,4.5-1.55,1.91-2.75,4.13-3.58,6.67-.84,2.54-1.26,5.26-1.26,8.16s.36,5.6,1.07,8.12c.71,2.52,1.8,4.7,3.28,6.56,1.47,1.86,3.36,3.32,5.64,4.38,2.29,1.07,5.01,1.6,8.16,1.6,2.49,0,4.68-.33,6.56-.99,1.88-.66,3.51-1.59,4.88-2.78,1.37-1.19,2.52-2.59,3.43-4.19.92-1.6,1.65-3.34,2.21-5.22h-5.11c-.71,2.9-2.14,5.14-4.27,6.71-2.14,1.58-4.7,2.36-7.7,2.36-2.19,0-4.12-.42-5.8-1.26-1.68-.84-3.06-1.96-4.16-3.36-1.09-1.4-1.92-3.05-2.48-4.96-.56-1.91-.84-3.93-.84-6.06h30.66c.05-7.12-1.48-12.54-4.58-16.28ZM420.08,166.53c.2-1.88.64-3.66,1.3-5.34.66-1.68,1.54-3.15,2.63-4.42,1.09-1.27,2.41-2.29,3.97-3.05,1.55-.76,3.34-1.14,5.38-1.14s3.84.37,5.41,1.11c1.58.74,2.88,1.73,3.93,2.97,1.04,1.25,1.83,2.72,2.36,4.42.53,1.7.8,3.52.8,5.45h-25.77Z"/>
      <polygon points="488.78 153.57 488.78 149.52 458.43 149.52 458.43 153.34 482.91 153.34 456.68 184.98 456.68 189.03 489.77 189.03 489.77 185.21 462.55 185.21 488.78 153.57"/>
      <path d="M524.55,171.03c0,2.19-.28,4.19-.84,6.02-.56,1.83-1.35,3.41-2.36,4.73-1.02,1.32-2.28,2.35-3.78,3.09-1.5.74-3.19,1.11-5.07,1.11-3.61,0-6.2-.9-7.78-2.71-1.58-1.8-2.36-4.41-2.36-7.82v-25.93h-4.58v26c0,2.09.24,4,.72,5.76.48,1.75,1.27,3.29,2.36,4.61,1.09,1.32,2.53,2.35,4.31,3.09,1.78.74,3.99,1.11,6.63,1.11,1.73,0,3.25-.22,4.58-.65,1.32-.43,2.48-.97,3.47-1.6.99-.64,1.87-1.33,2.63-2.1.76-.76,1.45-1.5,2.06-2.21v5.49h4.58v-39.5h-4.58v21.5Z"/>
      <path d="M545.14,156.92h-.15v-7.4h-4.58v39.5h4.58v-19.37c0-2.19.19-4.28.57-6.29.38-2.01,1.07-3.75,2.06-5.22.99-1.47,2.33-2.64,4-3.51,1.68-.86,3.81-1.27,6.41-1.22v-4.96c-3.31,0-5.96.62-7.97,1.87-2.01,1.25-3.65,3.44-4.92,6.6Z"/>
      <rect x="566.26" y="149.52" width="4.58" height="39.5"/>
      <rect x="566.03" y="134.12" width="5.03" height="6.79"/>
      <path d="M137.85,222.22c49.83,31.78,99.65,63.56,149.48,95.34.02-74.42.04-148.85.06-223.27C237.83,62.85,188.28,31.43,138.73,0c-.3,74.07-.59,148.14-.89,222.22Z"/>
      <polygon points="95.78 158.54 50.18 158.54 50.18 112.94 45.6 112.94 45.6 158.54 0 158.54 0 163.12 45.6 163.12 45.6 208.72 50.18 208.72 50.18 163.12 95.78 163.12 95.78 158.54"/>
    </g>
  </g>
</svg>